<?xml version="1.0" encoding="UTF-8" standalone="no"?>
<svg
   xmlns:dc="http://purl.org/dc/elements/1.1/"
   xmlns:cc="http://creativecommons.org/ns#"
   xmlns:rdf="http://www.w3.org/1999/02/22-rdf-syntax-ns#"
   xmlns:svg="http://www.w3.org/2000/svg"
   xmlns="http://www.w3.org/2000/svg"
   xmlns:sodipodi="http://sodipodi.sourceforge.net/DTD/sodipodi-0.dtd"
   xmlns:inkscape="http://www.inkscape.org/namespaces/inkscape"
   sodipodi:docname="paper.svg"
   inkscape:version="1.0 (4035a4fb49, 2020-05-01)"
   id="svg984"
   version="1.1"
   viewBox="0 0 25 25"
   height="25mm"
   width="25mm">
  <defs
     id="defs978">
    <marker
       inkscape:isstock="true"
       style="overflow:visible"
       id="Arrow1Lstart"
       refX="0"
       refY="0"
       orient="auto"
       inkscape:stockid="Arrow1Lstart">
      <path
         transform="matrix(0.8,0,0,0.8,10,0)"
         style="fill:#000000;fill-opacity:1;fill-rule:evenodd;stroke:#000000;stroke-width:1pt;stroke-opacity:1"
         d="M 0,0 5,-5 -12.5,0 5,5 Z"
         id="path1563" />
    </marker>
  </defs>
  <sodipodi:namedview
     fit-margin-bottom="0"
     fit-margin-right="0"
     fit-margin-left="0"
     fit-margin-top="0"
     inkscape:window-maximized="1"
     inkscape:window-y="-8"
     inkscape:window-x="-8"
     inkscape:window-height="1057"
     inkscape:window-width="1920"
     showgrid="false"
     inkscape:document-rotation="0"
     inkscape:current-layer="layer1"
     inkscape:document-units="mm"
     inkscape:cy="73.635964"
     inkscape:cx="64.181108"
     inkscape:zoom="4.0647608"
     inkscape:pageshadow="2"
     inkscape:pageopacity="0.0"
     borderopacity="1.0"
     bordercolor="#666666"
     pagecolor="#ffffff"
     id="base" />
  <metadata
     id="metadata981">
    <rdf:RDF>
      <cc:Work
         rdf:about="">
        <dc:format>image/svg+xml</dc:format>
        <dc:type
           rdf:resource="http://purl.org/dc/dcmitype/StillImage" />
        <dc:title></dc:title>
      </cc:Work>
    </rdf:RDF>
  </metadata>
  <g
     transform="translate(-3.7733028,-5.7644686)"
     id="layer1"
     inkscape:groupmode="layer"
     inkscape:label="Layer 1">
    <path
       style="opacity:0.998;fill:#ffffff;fill-opacity:1;stroke:none;stroke-width:0.112124;stroke-miterlimit:4;stroke-dasharray:none;stroke-opacity:1"
       d="M 5.1377462,9.1444636 C 5.468207,9.2179516 5.9311041,8.73433 6.2442321,8.8908939 c 0.062942,0.031476 0.35092,0.386737 0.3918804,0.3457767 0.082959,-0.082962 0.027129,-0.3729056 0.1152591,-0.4610359 0.047209,-0.047209 0.3863115,0 0.4610356,0 1.1606815,0 2.4430158,-0.2149916 3.5269228,-0.5762946 0.07104,-0.023677 0.202277,0.2818122 0.207467,0.2766215 0.07684,-0.076839 -0.0077,-0.315041 0.06916,-0.3918804 0.262834,-0.2628343 1.884992,-0.083648 2.351282,-0.1613622 2.510435,-0.418406 5.401066,-0.783761 7.883712,-0.783761 -0.08331,0.3468108 0.30688,0.5009034 0.50714,0.9681753 0.963752,1.7998953 1.306181,4.2720887 2.212972,6.0856717 -0.335048,0.515601 -0.421709,0.47629 0.06916,0.414931 0.388566,1.323175 0.833901,3.083468 1.452263,4.011012 -0.21269,0.315461 -0.34184,0.267305 0.04609,0.322725 0.594802,1.901684 1.028827,3.809591 1.890247,5.532429 0.101013,0.202023 0.794375,1.003666 0.507139,1.290901 -0.606451,0.606449 -2.395062,-0.0024 -2.950629,0.553243 -0.119287,0.119287 -0.318697,-0.372857 -0.437984,-0.25357 -0.06909,0.06909 -0.0224,0.32208 -0.115256,0.414932 -0.03976,0.03975 -0.258389,0.01501 -0.322726,0.02305 -0.768123,0.09602 -1.538864,0.292508 -2.305178,0.484086 -0.118658,0.02967 -0.562487,0.06453 -0.691555,0 -0.06301,-0.0315 -0.161239,-0.33431 -0.276621,-0.27662 -0.09481,0.0474 0.0028,0.444739 -0.115256,0.484086 -0.72142,0.240475 -1.5145,0.07454 -2.259076,0.322727 -2.063938,0.687979 -4.476945,0.903711 -6.477551,1.475313 -0.331813,-0.422621 -0.331768,-1.000269 -0.668503,-1.337003 -0.127307,-0.127308 0.54224,-0.218469 0.414933,-0.345777 -0.0429,-0.0429 -0.432973,-0.09822 -0.484087,-0.115255 -1.043113,-3.042 -2.0795246,-6.171845 -2.9506318,-9.220719 0.2246,-0.326061 0.2337176,-0.335615 -0.1595596,-0.433933 C 8.4233752,17.065799 8.6019722,17.115561 8.0221814,17.115561 7.2949905,15.060402 6.8607626,12.885618 5.8542711,10.872635 5.5981091,10.360311 5.2202687,9.7491329 5.1377462,9.1444636 Z"
       id="path1984" />
    <g
       transform="matrix(0.08624922,0,0,0.08624922,4.7458658,6.5857151)"
       id="g1936">
      <g
         id="g1869">
        <path
           sodipodi:nodetypes="cc"
           id="path1859"
           d="M 59.294101,190.87519 C 121.01287,183.61589 183.57938,158.74011 243.36246,150.19967"
           style="opacity:0.998;fill:none;stroke:#8ad8f6;stroke-width:1.3;stroke-miterlimit:4;stroke-dasharray:none;stroke-opacity:1" />
        <path
           sodipodi:nodetypes="csc"
           id="path1861"
           d="m 63.926055,203.50281 c 37.331195,-2.09614 65.842615,-15.5821 102.304455,-22.87447 24.92759,-4.98552 57.42049,-9.16643 80.01365,-18.84922"
           style="opacity:0.998;fill:none;stroke:#8ad8f6;stroke-width:1.3;stroke-miterlimit:4;stroke-dasharray:none;stroke-opacity:1" />
        <path
           sodipodi:nodetypes="csssc"
           id="path1863"
           d="m 56.013589,179.63477 c 17.017801,-2.28255 32.805307,-9.53195 49.557871,-12.32405 28.25245,-4.70874 55.50451,-13.61482 83.52173,-18.70886 11.1476,-2.02684 21.49462,-4.76402 32.74051,-6.01356 5.22536,-0.5806 12.44792,-3.52001 17.42788,-4.765"
           style="opacity:0.998;fill:none;stroke:#8ad8f6;stroke-width:1.3;stroke-miterlimit:4;stroke-dasharray:none;stroke-opacity:1" />
      </g>
      <g
         id="g1877"
         transform="translate(-10.583333,-36.66369)">
        <path
           style="opacity:0.998;fill:none;stroke:#8ad8f6;stroke-width:1.3;stroke-miterlimit:4;stroke-dasharray:none;stroke-opacity:1"
           d="M 58.443654,191.15868 C 120.16243,183.89938 180.65007,159.77955 240.43315,151.23911"
           id="path1871"
           sodipodi:nodetypes="cc" />
        <path
           style="opacity:0.998;fill:none;stroke:#8ad8f6;stroke-width:1.3;stroke-miterlimit:4;stroke-dasharray:none;stroke-opacity:1"
           d="m 62.319656,203.50281 c 37.331192,-2.09614 67.449014,-15.5821 103.910854,-22.87447 24.92759,-4.98552 55.90858,-8.78845 78.50174,-18.47124"
           id="path1873"
           sodipodi:nodetypes="csc" />
        <path
           style="opacity:0.998;fill:none;stroke:#8ad8f6;stroke-width:1.3;stroke-miterlimit:4;stroke-dasharray:none;stroke-opacity:1"
           d="m 75.044358,175.02474 c 17.017801,-2.28255 13.774538,-4.92192 30.527102,-7.71402 28.25245,-4.70874 55.50451,-13.61482 83.52173,-18.70886 11.1476,-2.02684 21.49462,-4.76402 32.74051,-6.01356 5.22536,-0.5806 9.99107,-1.81912 14.97103,-3.06411"
           id="path1875"
           sodipodi:nodetypes="csssc" />
      </g>
      <g
         transform="translate(14.486658,36.116504)"
         id="g1885">
        <path
           sodipodi:nodetypes="csc"
           id="path1881"
           d="m 64.398525,203.40832 c 37.331195,-2.09614 65.370145,-15.48761 101.831985,-22.77998 24.92759,-4.98552 55.24712,-9.07194 77.84028,-18.75473"
           style="opacity:0.998;fill:none;stroke:#8ad8f6;stroke-width:1.3;stroke-miterlimit:4;stroke-dasharray:none;stroke-opacity:1" />
        <path
           sodipodi:nodetypes="csssc"
           id="path1883"
           d="m 53.462249,180.01274 c 17.017801,-2.28255 35.356647,-9.90992 52.109211,-12.70202 28.25245,-4.70874 55.50451,-13.61482 83.52173,-18.70886 11.1476,-2.02684 21.49462,-4.76402 32.74051,-6.01356 5.22536,-0.5806 9.14063,-1.81912 14.12059,-3.06411"
           style="opacity:0.998;fill:none;stroke:#8ad8f6;stroke-width:1.3;stroke-miterlimit:4;stroke-dasharray:none;stroke-opacity:1" />
        <path
           style="opacity:0.998;fill:none;stroke:#8ad8f6;stroke-width:1.3;stroke-miterlimit:4;stroke-dasharray:none;stroke-opacity:1"
           d="M 74.399896,188.70183 C 136.11866,181.44253 179.98861,159.49606 239.77169,150.95562"
           id="path1976"
           sodipodi:nodetypes="cc" />
      </g>
      <g
         transform="rotate(1.9740931,3302.6776,-843.34673)"
         id="g1903">
        <path
           sodipodi:nodetypes="cc"
           id="path1897"
           d="M 58.227899,190.83346 C 119.94667,183.57416 180.49767,160.10785 240.28075,151.56741"
           style="opacity:0.998;fill:none;stroke:#8ad8f6;stroke-width:1.3;stroke-miterlimit:4;stroke-dasharray:none;stroke-opacity:1" />
        <path
           sodipodi:nodetypes="csc"
           id="path1899"
           d="m 62.400964,203.39892 c 37.331192,-2.09614 67.407146,-15.28373 103.829546,-22.77058 24.92285,-5.12304 55.0388,-11.05029 77.71965,-18.18908"
           style="opacity:0.998;fill:none;stroke:#8ad8f6;stroke-width:1.3;stroke-miterlimit:4;stroke-dasharray:none;stroke-opacity:1" />
        <path
           sodipodi:nodetypes="csssc"
           id="path1901"
           d="m 53.828699,179.82689 c 17.017801,-2.28255 34.990197,-9.72407 51.742761,-12.51617 28.25245,-4.70874 55.50451,-13.61482 83.52173,-18.70886 11.1476,-2.02684 21.49462,-4.76402 32.74051,-6.01356 5.22536,-0.5806 9.26296,-1.90439 14.24292,-3.14938"
           style="opacity:0.998;fill:none;stroke:#8ad8f6;stroke-width:1.3;stroke-miterlimit:4;stroke-dasharray:none;stroke-opacity:1" />
      </g>
      <path
         sodipodi:nodetypes="cc"
         style="opacity:0.998;fill:none;stroke:#8ad8f6;stroke-width:1.3;stroke-miterlimit:4;stroke-dasharray:none;stroke-opacity:1"
         d="M 79.279469,248.33925 C 145.41455,237.77613 197.07284,216.94616 263.73526,208.61336"
         id="path1905" />
      <g
         id="g1913"
         transform="rotate(0.63710286,6765.4359,-1566.0848)">
        <path
           style="opacity:0.998;fill:none;stroke:#8ad8f6;stroke-width:1.3;stroke-miterlimit:4;stroke-dasharray:none;stroke-opacity:1"
           d="M 55.415403,191.30461 C 117.13417,184.04531 177.83159,160.45149 237.61467,151.91105"
           id="path1907"
           sodipodi:nodetypes="cc" />
        <path
           style="opacity:0.998;fill:none;stroke:#8ad8f6;stroke-width:1.3;stroke-miterlimit:4;stroke-dasharray:none;stroke-opacity:1"
           d="m 62.030587,203.34846 c 37.331192,-2.09614 67.738083,-15.42775 104.199923,-22.72012 24.92759,-4.98552 51.30942,-7.74071 73.90258,-17.4235"
           id="path1909"
           sodipodi:nodetypes="csc" />
        <path
           style="opacity:0.998;fill:none;stroke:#8ad8f6;stroke-width:1.3;stroke-miterlimit:4;stroke-dasharray:none;stroke-opacity:1"
           d="m 51.379008,180.26578 c 17.017801,-2.28255 37.439888,-10.16296 54.192452,-12.95506 28.25245,-4.70874 55.50451,-13.61482 83.52173,-18.70886 11.1476,-2.02684 21.49462,-4.76402 32.74051,-6.01356 5.22536,-0.5806 6.51721,-0.71571 11.49717,-1.9607"
           id="path1911"
           sodipodi:nodetypes="csssc" />
      </g>
    </g>
    <path
       id="path1849"
       d="m 7.4842785,11.231237 c 0.1387422,0.0041 0.2884865,-0.0016 0.4156522,0.04074 0.1803449,0.06011 0.2356866,0.168494 0.2771008,0.334152 0.242389,0.969554 -1.544045,0.43564 -1.0106044,-0.0978 -0.1456986,-0.421557 0.1809143,-0.02768 0.2037508,-0.07335 0.055968,-0.111938 -0.1555947,-0.280806 0.1141003,-0.203751 z"
       style="opacity:0.998;fill:none;stroke:#000000;stroke-width:0.112124;stroke-miterlimit:4;stroke-dasharray:none;stroke-opacity:1" />
    <path
       sodipodi:nodetypes="csc"
       id="path1940"
       d="m 8.2037987,8.7435975 c 2.7088193,3.7934145 2.4467563,9.1245345 4.4988203,13.2030595 1.031663,2.050455 1.574506,4.973049 2.074035,6.415281"
       style="opacity:0.998;fill:none;stroke:#ed1e26;stroke-width:0.112124;stroke-miterlimit:4;stroke-dasharray:none;stroke-opacity:1" />
    <path
       sodipodi:nodetypes="cc"
       id="path1980"
       d="m 10.930097,26.196171 c 0.215501,-0.03556 0.436134,-0.06045 0.650974,-0.08732"
       style="opacity:0.998;fill:none;fill-opacity:1;stroke:#8ad8f6;stroke-width:0.112124;stroke-miterlimit:4;stroke-dasharray:none;stroke-opacity:1" />
    <path
       id="path1857"
       d="m 11.783423,25.387851 c 0.11844,-0.04794 0.273133,-0.03462 0.395277,-0.0041 0.267206,0.06681 0.328755,0.543301 0.138551,0.733505 -0.09995,0.09995 -0.27838,0.09092 -0.362677,0.175224 -0.0598,0.0598 -0.244237,-0.06703 -0.285251,-0.0978 -0.325651,-0.244239 -0.15044,-0.617898 0.114103,-0.806856 z"
       style="opacity:0.998;fill:none;stroke:#000000;stroke-width:0.112124;stroke-miterlimit:4;stroke-dasharray:none;stroke-opacity:1" />
    <path
       id="path1982"
       d="m 8.5826894,18.892408 c 0.2654793,-0.005 0.5512972,-0.08413 0.7998925,-0.155161"
       style="opacity:0.998;fill:none;fill-opacity:1;stroke:#8ad8f6;stroke-width:0.112124;stroke-miterlimit:4;stroke-dasharray:none;stroke-opacity:1" />
    <path
       id="path1847"
       d="M 5.1377462,9.1444636 C 5.468207,9.2179516 5.9311041,8.73433 6.2442321,8.8908939 c 0.062942,0.031476 0.35092,0.386737 0.3918804,0.3457767 0.082959,-0.082962 0.027129,-0.3729056 0.1152591,-0.4610359 0.047209,-0.047209 0.3863115,0 0.4610356,0 1.1606815,0 2.4430158,-0.2149916 3.5269228,-0.5762946 0.07104,-0.023677 0.202277,0.2818122 0.207467,0.2766215 0.07684,-0.076839 -0.0077,-0.315041 0.06916,-0.3918804 0.262834,-0.2628343 1.884992,-0.083648 2.351282,-0.1613622 2.510435,-0.418406 5.401066,-0.783761 7.883712,-0.783761 -0.08331,0.3468108 0.30688,0.5009034 0.50714,0.9681753 0.963752,1.7998953 1.306181,4.2720887 2.212972,6.0856717 -0.335048,0.515601 -0.421709,0.47629 0.06916,0.414931 0.388566,1.323175 0.833901,3.083468 1.452263,4.011012 -0.21269,0.315461 -0.34184,0.267305 0.04609,0.322725 0.594802,1.901684 1.028827,3.809591 1.890247,5.532429 0.101013,0.202023 0.794375,1.003666 0.507139,1.290901 -0.606451,0.606449 -2.395062,-0.0024 -2.950629,0.553243 -0.119287,0.119287 -0.318697,-0.372857 -0.437984,-0.25357 -0.06909,0.06909 -0.0224,0.32208 -0.115256,0.414932 -0.03976,0.03975 -0.258389,0.01501 -0.322726,0.02305 -0.768123,0.09602 -1.538864,0.292508 -2.305178,0.484086 -0.118658,0.02967 -0.562487,0.06453 -0.691555,0 -0.06301,-0.0315 -0.161239,-0.33431 -0.276621,-0.27662 -0.09481,0.0474 0.0028,0.444739 -0.115256,0.484086 -0.72142,0.240475 -1.5145,0.07454 -2.259076,0.322727 -2.063938,0.687979 -4.476945,0.903711 -6.477551,1.475313 -0.331813,-0.422621 -0.331768,-1.000269 -0.668503,-1.337003 -0.127307,-0.127308 0.54224,-0.218469 0.414933,-0.345777 -0.0429,-0.0429 -0.432973,-0.09822 -0.484087,-0.115255 -1.043113,-3.042 -2.0795246,-6.171845 -2.9506318,-9.220719 0.2246,-0.326061 0.2337176,-0.335615 -0.1595596,-0.433933 C 8.4233752,17.065799 8.6019722,17.115561 8.0221814,17.115561 7.2949905,15.060402 6.8607626,12.885618 5.8542711,10.872635 5.5981091,10.360311 5.2202687,9.7491329 5.1377462,9.1444636 Z"
       style="opacity:0.998;fill:none;stroke:#000000;stroke-width:0.112124;stroke-miterlimit:4;stroke-dasharray:none;stroke-opacity:1" />
    <path
       id="path1855"
       d="M 9.2870681,18.538067 C 9.2752734,17.927045 10.461726,18.144355 10.324398,18.693666 10.23573,19.048331 9.8833948,19.046121 9.6040301,18.952998 9.474501,18.909817 9.3443276,18.652586 9.2870681,18.538067 Z"
       style="opacity:0.998;fill:none;stroke:#000000;stroke-width:0.112124;stroke-miterlimit:4;stroke-dasharray:none;stroke-opacity:1" />
  </g>
</svg>
