<?xml version="1.0" encoding="UTF-8" standalone="no"?>
<svg
   xmlns:dc="http://purl.org/dc/elements/1.1/"
   xmlns:cc="http://creativecommons.org/ns#"
   xmlns:rdf="http://www.w3.org/1999/02/22-rdf-syntax-ns#"
   xmlns:svg="http://www.w3.org/2000/svg"
   xmlns="http://www.w3.org/2000/svg"
   xmlns:sodipodi="http://sodipodi.sourceforge.net/DTD/sodipodi-0.dtd"
   xmlns:inkscape="http://www.inkscape.org/namespaces/inkscape"
   sodipodi:docname="rock.svg"
   inkscape:version="1.0 (4035a4fb49, 2020-05-01)"
   id="svg8"
   version="1.1"
   viewBox="0 0 65.854881 56.288145"
   height="56.288143mm"
   width="65.854881mm">
  <defs
     id="defs2" />
  <sodipodi:namedview
     inkscape:window-maximized="1"
     inkscape:window-y="-8"
     inkscape:window-x="-8"
     inkscape:window-height="1027"
     inkscape:window-width="1920"
     inkscape:object-nodes="true"
     inkscape:snap-smooth-nodes="false"
     inkscape:snap-midpoints="false"
     fit-margin-bottom="0"
     fit-margin-right="0"
     fit-margin-left="0"
     fit-margin-top="0"
     showgrid="false"
     inkscape:document-rotation="0"
     inkscape:current-layer="layer1"
     inkscape:document-units="mm"
     inkscape:cy="73.720338"
     inkscape:cx="203.67714"
     inkscape:zoom="1.4"
     inkscape:pageshadow="2"
     inkscape:pageopacity="0.0"
     borderopacity="1.0"
     bordercolor="#666666"
     pagecolor="#ffffff"
     id="base" />
  <metadata
     id="metadata5">
    <rdf:RDF>
      <cc:Work
         rdf:about="">
        <dc:format>image/svg+xml</dc:format>
        <dc:type
           rdf:resource="http://purl.org/dc/dcmitype/StillImage" />
        <dc:title></dc:title>
      </cc:Work>
    </rdf:RDF>
  </metadata>
  <g
     transform="translate(-43.108626,-37.49516)"
     id="layer1"
     inkscape:groupmode="layer"
     inkscape:label="Layer 1">
    <path
       id="path891"
       d="m 56.088665,74.718402 c -6.424856,0.952413 -2.903857,-3.705667 -5.078121,-5.879931 -1.13909,-1.139089 -4.866521,-0.590208 -6.548104,-2.271792 -3.932349,-3.932348 3.778321,-14.23838 5.34539,-17.372517 0.667758,-1.335516 -0.02598,-4.080814 1.469983,-5.078122 6.22546,-4.150307 34.04993,-8.36564 40.090428,-5.34539 4.064854,2.032426 3.931436,5.131017 5.879931,6.548104 1.763098,1.282253 5.685538,1.482106 6.681738,3.474503 2.08472,4.169447 6.20997,13.206542 4.27631,18.040694 -0.60496,1.512403 -2.40542,2.326045 -2.40542,4.142676 0,5.003366 4.69013,11.363756 -0.80181,15.635266 -4.46203,3.470466 -9.486141,1.092851 -14.298923,2.405428 -3.582524,0.977053 -6.879171,2.767801 -10.423511,3.875408 -10.444692,3.263966 -13.621586,-6.563842 -18.8425,-12.828937 -1.813381,-2.176058 -6.209382,-2.32142 -5.345391,-5.34539 z"
       style="opacity:0.998;fill:#a9a9a9;fill-opacity:1;stroke:#000000;stroke-width:0.499999;stroke-miterlimit:4;stroke-dasharray:none;stroke-opacity:1" />
    <path
       transform="matrix(0.26458333,0,0,0.26458333,0.0956995,0.01656885)"
       d="m 300.65234,143.16797 c -39.65487,2.51112 -91.53529,13.05868 -107.20898,23.50781 -5.65403,3.76935 -3.03088,14.14379 -5.55469,19.19141 -5.92278,11.84555 -35.06554,50.79774 -20.20312,65.66015 6.35559,6.3556 20.44282,4.28268 24.74804,8.58789 8.21769,8.2177 -5.08956,25.82233 19.19336,22.22266 -3.26547,11.42918 13.3494,11.97865 20.20313,20.20313 1.0535,1.2642 2.08088,2.57291 3.0957,3.90429 12.71226,-12.17948 22.00825,-28.27413 25.18945,-44.8164 2.37596,-12.35497 -1.51085,-25.78277 1.51368,-37.88086 3.79706,-15.18824 20.9912,-29.61544 28.28515,-43.43555 7.02915,-13.31839 8.2827,-26.13778 10.73828,-37.14453 z"
       style="opacity:0.998;fill:#848484;fill-opacity:1;stroke:none;stroke-width:1.88976;stroke-miterlimit:4;stroke-dasharray:none;stroke-opacity:1"
       id="path893" />
    <path
       transform="matrix(0.26458333,0,0,0.26458333,0.0956995,0.01656885)"
       d="m 344.76172,146.37891 c -3.24675,23.49986 -4.61659,46.05883 -1.18945,70.04882 4.98806,34.91648 -29.35916,88.12105 -6.65625,121.63868 1.82524,-0.60899 3.66456,-1.17805 5.52539,-1.68555 18.19004,-4.96092 37.1786,4.02492 54.04297,-9.0918 20.75693,-16.14429 3.03124,-40.18339 3.03124,-59.09375 10e-6,-6.866 6.80534,-9.94008 9.0918,-15.65625 7.30832,-18.27081 -8.2848,-52.427 -16.16406,-68.18554 -3.76517,-7.53032 -18.58828,-8.28651 -25.25195,-13.13282 -7.36439,-5.35592 -6.86139,-17.06643 -22.22461,-24.74804 -0.0648,-0.0324 -0.13895,-0.0618 -0.20508,-0.0937 z"
       style="opacity:0.998;fill:#c1c1c1;fill-opacity:1;stroke:none;stroke-width:1.88976;stroke-miterlimit:4;stroke-dasharray:none;stroke-opacity:1"
       id="path901" />
    <path
       style="opacity:0.998;fill:none;fill-opacity:1;stroke:#000000;stroke-width:0.499999;stroke-miterlimit:4;stroke-dasharray:none;stroke-opacity:1"
       d="m 56.088665,74.718402 c -6.424856,0.952413 -2.903857,-3.705667 -5.078121,-5.879931 -1.13909,-1.139089 -4.866521,-0.590208 -6.548104,-2.271792 -3.932349,-3.932348 3.778321,-14.23838 5.34539,-17.372517 0.667758,-1.335516 -0.02598,-4.080814 1.469983,-5.078122 6.22546,-4.150307 34.04993,-8.36564 40.090428,-5.34539 4.064854,2.032426 3.931436,5.131017 5.879931,6.548104 1.763098,1.282253 5.685538,1.482106 6.681738,3.474503 2.08472,4.169447 6.20997,13.206542 4.27631,18.040694 -0.60496,1.512403 -2.40542,2.326045 -2.40542,4.142676 0,5.003366 4.69013,11.363756 -0.80181,15.635266 -4.46203,3.470466 -9.486141,1.092851 -14.298923,2.405428 -3.582524,0.977053 -6.879171,2.767801 -10.423511,3.875408 -10.444692,3.263966 -13.621586,-6.563842 -18.8425,-12.828937 -1.813381,-2.176058 -6.209382,-2.32142 -5.345391,-5.34539 z"
       id="path899" />
  </g>
</svg>
