<svg width="25mm" height="25mm" version="1.1" viewBox="0 0 25 25" xmlns="http://www.w3.org/2000/svg" xmlns:cc="http://creativecommons.org/ns#" xmlns:dc="http://purl.org/dc/elements/1.1/" xmlns:rdf="http://www.w3.org/1999/02/22-rdf-syntax-ns#">
<metadata>
<rdf:RDF>
<cc:Work rdf:about="">
<dc:format>image/svg+xml</dc:format>
<dc:type rdf:resource="http://purl.org/dc/dcmitype/StillImage"/>
<dc:title/>
</cc:Work>
</rdf:RDF>
</metadata>
<g transform="translate(-3.7733 -5.7645)">
<path d="m5.1377 9.1445c0.33046 0.073488 0.79336-0.41013 1.1065-0.25357 0.062942 0.031476 0.35092 0.38674 0.39188 0.34578 0.082959-0.082962 0.027129-0.37291 0.11526-0.46104 0.047209-0.047209 0.38631 0 0.46104 0 1.1607 0 2.443-0.21499 3.5269-0.57629 0.07104-0.023677 0.20228 0.28181 0.20747 0.27662 0.07684-0.076839-0.0077-0.31504 0.06916-0.39188 0.26283-0.26283 1.885-0.083648 2.3513-0.16136 2.5104-0.41841 5.4011-0.78376 7.8837-0.78376-0.08331 0.34681 0.30688 0.5009 0.50714 0.96818 0.96375 1.7999 1.3062 4.2721 2.213 6.0857-0.33505 0.5156-0.42171 0.47629 0.06916 0.41493 0.38857 1.3232 0.8339 3.0835 1.4523 4.011-0.21269 0.31546-0.34184 0.2673 0.04609 0.32272 0.5948 1.9017 1.0288 3.8096 1.8902 5.5324 0.10101 0.20202 0.79438 1.0037 0.50714 1.2909-0.60645 0.60645-2.3951-0.0024-2.9506 0.55324-0.11929 0.11929-0.3187-0.37286-0.43798-0.25357-0.06909 0.06909-0.0224 0.32208-0.11526 0.41493-0.03976 0.03975-0.25839 0.01501-0.32273 0.02305-0.76812 0.09602-1.5389 0.29251-2.3052 0.48409-0.11866 0.02967-0.56249 0.06453-0.69156 0-0.06301-0.0315-0.16124-0.33431-0.27662-0.27662-0.09481 0.0474 0.0028 0.44474-0.11526 0.48409-0.72142 0.24048-1.5145 0.07454-2.2591 0.32273-2.0639 0.68798-4.4769 0.90371-6.4776 1.4753-0.33181-0.42262-0.33177-1.0003-0.6685-1.337-0.12731-0.12731 0.54224-0.21847 0.41493-0.34578-0.0429-0.0429-0.43297-0.09822-0.48409-0.11526-1.0431-3.042-2.0795-6.1718-2.9506-9.2207 0.2246-0.32606 0.23372-0.33562-0.15956-0.43393 0.28709-0.47356 0.46569-0.4238-0.1141-0.4238-0.72719-2.0552-1.1614-4.2299-2.1679-6.2429-0.25616-0.51232-0.634-1.1235-0.71652-1.7282z" fill="#fff" opacity=".998"/>
<g transform="matrix(.086249 0 0 .086249 4.7459 6.5857)" fill="none" stroke="#8ad8f6" stroke-width="1.3">
<path d="m59.294 190.88c61.719-7.2593 124.29-32.135 184.07-40.676" opacity=".998"/>
<path d="m63.926 203.5c37.331-2.0961 65.843-15.582 102.3-22.874 24.928-4.9855 57.42-9.1664 80.014-18.849" opacity=".998"/>
<path d="m56.014 179.63c17.018-2.2826 32.805-9.532 49.558-12.324 28.252-4.7087 55.505-13.615 83.522-18.709 11.148-2.0268 21.495-4.764 32.741-6.0136 5.2254-0.5806 12.448-3.52 17.428-4.765" opacity=".998"/>
<g transform="translate(-10.583 -36.664)">
<path d="m58.444 191.16c61.719-7.2593 122.21-31.379 181.99-39.92" opacity=".998"/>
<path d="m62.32 203.5c37.331-2.0961 67.449-15.582 103.91-22.874 24.928-4.9855 55.909-8.7884 78.502-18.471" opacity=".998"/>
<path d="m75.044 175.02c17.018-2.2826 13.775-4.9219 30.527-7.714 28.252-4.7087 55.505-13.615 83.522-18.709 11.148-2.0268 21.495-4.764 32.741-6.0136 5.2254-0.5806 9.9911-1.8191 14.971-3.0641" opacity=".998"/>
</g>
<g transform="translate(14.487 36.117)">
<path d="m64.399 203.41c37.331-2.0961 65.37-15.488 101.83-22.78 24.928-4.9855 55.247-9.0719 77.84-18.755" opacity=".998"/>
<path d="m53.462 180.01c17.018-2.2826 35.357-9.9099 52.109-12.702 28.252-4.7087 55.505-13.615 83.522-18.709 11.148-2.0268 21.495-4.764 32.741-6.0136 5.2254-0.5806 9.1406-1.8191 14.121-3.0641" opacity=".998"/>
<path d="m74.4 188.7c61.719-7.2593 105.59-29.206 165.37-37.746" opacity=".998"/>
</g>
<g transform="rotate(1.9741 3302.7 -843.35)">
<path d="m58.228 190.83c61.719-7.2593 122.27-30.726 182.05-39.266" opacity=".998"/>
<path d="m62.401 203.4c37.331-2.0961 67.407-15.284 103.83-22.771 24.923-5.123 55.039-11.05 77.72-18.189" opacity=".998"/>
<path d="m53.829 179.83c17.018-2.2826 34.99-9.7241 51.743-12.516 28.252-4.7087 55.505-13.615 83.522-18.709 11.148-2.0268 21.495-4.764 32.741-6.0136 5.2254-0.5806 9.263-1.9044 14.243-3.1494" opacity=".998"/>
</g>
<path d="m79.279 248.34c66.135-10.563 117.79-31.393 184.46-39.726" opacity=".998"/>
<g transform="rotate(.6371 6765.4 -1566.1)">
<path d="m55.415 191.3c61.719-7.2593 122.42-30.853 182.2-39.394" opacity=".998"/>
<path d="m62.031 203.35c37.331-2.0961 67.738-15.428 104.2-22.72 24.928-4.9855 51.309-7.7407 73.903-17.424" opacity=".998"/>
<path d="m51.379 180.27c17.018-2.2826 37.44-10.163 54.192-12.955 28.252-4.7087 55.505-13.615 83.522-18.709 11.148-2.0268 21.495-4.764 32.741-6.0136 5.2254-0.5806 6.5172-0.71571 11.497-1.9607" opacity=".998"/>
</g>
</g>
<path d="m7.4843 11.231c0.13874 0.0041 0.28849-0.0016 0.41565 0.04074 0.18034 0.06011 0.23569 0.16849 0.2771 0.33415 0.24239 0.96955-1.544 0.43564-1.0106-0.0978-0.1457-0.42156 0.18091-0.02768 0.20375-0.07335 0.055968-0.11194-0.15559-0.28081 0.1141-0.20375z" fill="none" opacity=".998" stroke="#000" stroke-width=".11212"/>
<path d="m8.2038 8.7436c2.7088 3.7934 2.4468 9.1245 4.4988 13.203 1.0317 2.0505 1.5745 4.973 2.074 6.4153" fill="none" opacity=".998" stroke="#ed1e26" stroke-width=".11212"/>
<path d="m10.93 26.196c0.2155-0.03556 0.43613-0.06045 0.65097-0.08732" fill="none" opacity=".998" stroke="#8ad8f6" stroke-width=".11212"/>
<path d="m11.783 25.388c0.11844-0.04794 0.27313-0.03462 0.39528-0.0041 0.26721 0.06681 0.32876 0.5433 0.13855 0.7335-0.09995 0.09995-0.27838 0.09092-0.36268 0.17522-0.0598 0.0598-0.24424-0.06703-0.28525-0.0978-0.32565-0.24424-0.15044-0.6179 0.1141-0.80686z" fill="none" opacity=".998" stroke="#000" stroke-width=".11212"/>
<path d="m8.5827 18.892c0.26548-5e-3 0.5513-0.08413 0.79989-0.15516" fill="none" opacity=".998" stroke="#8ad8f6" stroke-width=".11212"/>
<path d="m5.1377 9.1445c0.33046 0.073488 0.79336-0.41013 1.1065-0.25357 0.062942 0.031476 0.35092 0.38674 0.39188 0.34578 0.082959-0.082962 0.027129-0.37291 0.11526-0.46104 0.047209-0.047209 0.38631 0 0.46104 0 1.1607 0 2.443-0.21499 3.5269-0.57629 0.07104-0.023677 0.20228 0.28181 0.20747 0.27662 0.07684-0.076839-0.0077-0.31504 0.06916-0.39188 0.26283-0.26283 1.885-0.083648 2.3513-0.16136 2.5104-0.41841 5.4011-0.78376 7.8837-0.78376-0.08331 0.34681 0.30688 0.5009 0.50714 0.96818 0.96375 1.7999 1.3062 4.2721 2.213 6.0857-0.33505 0.5156-0.42171 0.47629 0.06916 0.41493 0.38857 1.3232 0.8339 3.0835 1.4523 4.011-0.21269 0.31546-0.34184 0.2673 0.04609 0.32272 0.5948 1.9017 1.0288 3.8096 1.8902 5.5324 0.10101 0.20202 0.79438 1.0037 0.50714 1.2909-0.60645 0.60645-2.3951-0.0024-2.9506 0.55324-0.11929 0.11929-0.3187-0.37286-0.43798-0.25357-0.06909 0.06909-0.0224 0.32208-0.11526 0.41493-0.03976 0.03975-0.25839 0.01501-0.32273 0.02305-0.76812 0.09602-1.5389 0.29251-2.3052 0.48409-0.11866 0.02967-0.56249 0.06453-0.69156 0-0.06301-0.0315-0.16124-0.33431-0.27662-0.27662-0.09481 0.0474 0.0028 0.44474-0.11526 0.48409-0.72142 0.24048-1.5145 0.07454-2.2591 0.32273-2.0639 0.68798-4.4769 0.90371-6.4776 1.4753-0.33181-0.42262-0.33177-1.0003-0.6685-1.337-0.12731-0.12731 0.54224-0.21847 0.41493-0.34578-0.0429-0.0429-0.43297-0.09822-0.48409-0.11526-1.0431-3.042-2.0795-6.1718-2.9506-9.2207 0.2246-0.32606 0.23372-0.33562-0.15956-0.43393 0.28709-0.47356 0.46569-0.4238-0.1141-0.4238-0.72719-2.0552-1.1614-4.2299-2.1679-6.2429-0.25616-0.51232-0.634-1.1235-0.71652-1.7282z" fill="none" opacity=".998" stroke="#000" stroke-width=".11212"/>
<path d="m9.2871 18.538c-0.011795-0.61102 1.1747-0.39371 1.0373 0.1556-0.088668 0.35466-0.441 0.35246-0.72037 0.25933-0.12953-0.043181-0.2597-0.30041-0.31696-0.41493z" fill="none" opacity=".998" stroke="#000" stroke-width=".11212"/>
</g>
</svg>
